<svg width="44" height="44" viewBox="0 0 44 44" fill="none" xmlns="http://www.w3.org/2000/svg">
<path d="M30.4451 9.3335H13.5562C11.2281 9.3335 9.33398 11.2929 9.33398 13.7013V24.1841C9.33398 26.5925 11.2281 28.5519 13.5562 28.5519H15.2451V33.7933C15.2451 34.1466 15.4507 34.465 15.7661 34.6004C15.8708 34.645 15.9806 34.6668 16.0895 34.6668C16.3095 34.6668 16.5248 34.5782 16.6866 34.4109L22.3502 28.5519H30.4451C32.7732 28.5519 34.6673 26.5925 34.6673 24.1841V13.7013C34.6673 11.2929 32.7732 9.3335 30.4451 9.3335ZM25.5895 19.6646H15.2451C14.779 19.6646 14.4007 19.4249 14.4007 18.9427C14.4007 18.4605 14.779 18.2208 15.2451 18.2208H25.5895C26.0557 18.2208 26.434 18.4605 26.434 18.9427C26.434 19.4249 26.0557 19.6646 25.5895 19.6646ZM28.7562 16.1703H15.2451C14.779 16.1703 14.4007 15.9306 14.4007 15.4484C14.4007 14.9662 14.779 14.7266 15.2451 14.7266H28.7562C29.2223 14.7266 29.6006 14.9662 29.6006 15.4484C29.6006 15.9306 29.2223 16.1703 28.7562 16.1703Z" fill="#2E2E2C"/>
</svg>
