<svg width="64" height="64" viewBox="0 0 64 64" fill="none" xmlns="http://www.w3.org/2000/svg">
<path d="M32.2332 38.3375L57.1314 11.0091C57.8753 10.1926 59.1403 10.1337 59.9568 10.8776L60.4648 11.3404C61.2812 12.0843 61.3401 13.3493 60.5962 14.1658L33.8496 43.5232C33.0945 44.352 31.8057 44.3983 30.9932 43.6258L17.8581 31.1393C17.0575 30.3782 17.0255 29.1122 17.7866 28.3117L18.2604 27.8133C19.0215 27.0128 20.2874 26.9808 21.0879 27.7419L32.2332 38.3375ZM61.0901 24.7183C60.7296 23.2611 58.9161 22.8977 57.9068 24.009L57.1956 24.7921C56.7416 25.292 56.5761 25.9861 56.718 26.6463C57.0869 28.363 57.2812 30.1436 57.2812 31.9688C57.2812 45.9258 45.9258 57.2812 31.9688 57.2812C18.0117 57.2812 6.65625 45.9258 6.65625 31.9688C6.65625 18.0117 18.0117 6.65625 31.9688 6.65625C37.7231 6.65625 43.0343 8.58744 47.2907 11.8344C48.164 12.5006 49.4155 12.4422 50.1539 11.6291L50.6274 11.1078C51.3731 10.2867 51.312 9.00973 50.4393 8.32514C45.1862 4.20446 38.7495 1.96875 31.9688 1.96875C23.9557 1.96875 16.4216 5.08923 10.7556 10.7556C5.08923 16.4216 1.96875 23.9557 1.96875 31.9688C1.96875 39.9818 5.08923 47.5159 10.7556 53.1819C16.4216 58.8483 23.9557 61.9688 31.9688 61.9688C39.9818 61.9688 47.5159 58.8483 53.1819 53.1819C58.8483 47.5159 61.9688 39.9818 61.9688 31.9688C61.9688 29.4922 61.6698 27.0619 61.0901 24.7183Z" fill="#26AD5C"/>
</svg>
