<svg width="24" height="24" viewBox="0 0 24 24" fill="none" xmlns="http://www.w3.org/2000/svg">
<path d="M11.4905 21.813C11.6252 21.9505 11.8086 22.0269 12.0006 22.0269C12.1926 22.0269 12.376 21.9505 12.5107 21.813L21.6755 12.5298C24.0551 10.1204 24.0551 6.19838 21.6755 3.78805C20.5196 2.61726 18.9826 1.97266 17.3463 1.97266C15.7099 1.97266 14.1738 2.61726 13.018 3.78709L12.0006 4.81845L10.9832 3.78805C9.82738 2.61726 8.29036 1.97266 6.65494 1.97266C5.01858 1.97266 3.48156 2.61726 2.32569 3.78805C-0.0538749 6.19838 -0.0538749 10.1204 2.32569 12.5288L11.4905 21.813ZM3.34495 4.79362C4.22953 3.89882 5.40546 3.4051 6.65399 3.4051C7.90347 3.4051 9.07845 3.89882 9.96207 4.79458L11.4895 6.34162C11.758 6.61379 12.2404 6.61379 12.5088 6.34162L14.0363 4.79362C14.9228 3.89882 16.0977 3.4051 17.3463 3.4051C18.5957 3.4051 19.7707 3.89882 20.6553 4.79362C22.4865 6.64912 22.4865 9.66777 20.6553 11.5242L12.0006 20.2918L3.34495 11.5233C1.51371 9.66872 1.51371 6.64912 3.34495 4.79362Z" fill="#515151"/>
<circle cx="19.358" cy="4.64125" r="4.64125" fill="#E5271B"/>
</svg>
