<svg width="23" height="21" viewBox="0 0 23 21" fill="none" xmlns="http://www.w3.org/2000/svg">
<path d="M10.9495 19.8404C11.0842 19.9779 11.2676 20.0543 11.4596 20.0543C11.6516 20.0543 11.835 19.9779 11.9697 19.8404L21.1345 10.5571C23.5141 8.14777 23.5141 4.22572 21.1345 1.81539C19.9786 0.644602 18.4416 0 16.8052 0C15.1689 0 13.6328 0.644602 12.4769 1.81443L11.4596 2.8458L10.4422 1.81539C9.28636 0.644602 7.74934 0 6.11393 0C4.47756 0 2.94054 0.644602 1.78467 1.81539C-0.594891 4.22572 -0.594891 8.14777 1.78467 10.5562L10.9495 19.8404ZM2.80394 2.82097C3.68851 1.92617 4.86444 1.43245 6.11297 1.43245C7.36246 1.43245 8.53743 1.92617 9.42105 2.82192L10.9485 4.36897C11.2169 4.64113 11.6994 4.64113 11.9678 4.36897L13.4953 2.82097C14.3817 1.92617 15.5567 1.43245 16.8052 1.43245C18.0547 1.43245 19.2297 1.92617 20.1143 2.82097C21.9455 4.67647 21.9455 7.69511 20.1143 9.55156L11.4596 18.3191L2.80394 9.55061C0.972697 7.69607 0.972697 4.67647 2.80394 2.82097Z" fill="#515151"/>
</svg>
