<svg width="18" height="18" viewBox="0 0 18 18" fill="none" xmlns="http://www.w3.org/2000/svg">
<path d="M13.1294 10.6835L12.2549 9.80902C12.0163 9.57045 11.6866 9.45089 11.3509 9.48108C11.0149 9.51122 10.7119 9.68746 10.5196 9.96458L10.215 10.4035C9.80076 10.3297 8.99939 10.1209 8.43922 9.56068C7.87884 9.00026 7.67001 8.19853 7.59634 7.7849L8.03539 7.48027C8.31254 7.28794 8.48879 6.98491 8.51886 6.64892C8.54899 6.31292 8.42943 5.98344 8.19092 5.74496L7.31648 4.87052C6.96509 4.51916 6.43544 4.4353 5.99845 4.66173C5.23223 5.0587 4.72892 5.80281 4.58106 6.75697C4.34023 8.31155 5.05892 10.1456 6.45661 11.5433C7.67562 12.7623 9.22639 13.4647 10.6343 13.4647C10.8407 13.4647 11.0441 13.4496 11.2429 13.4188C12.1971 13.2711 12.9412 12.7677 13.3381 12.0015C13.3381 12.0015 13.3381 12.0015 13.3382 12.0015C13.5646 11.5644 13.4807 11.0348 13.1294 10.6835ZM12.4484 11.5405C12.133 12.1494 11.5353 12.3595 11.0895 12.4286C9.86377 12.6184 8.32334 11.9929 7.16515 10.8347C6.00702 9.67654 5.38138 8.13617 5.57125 6.91037C5.64028 6.46455 5.85047 5.86694 6.45935 5.55144C6.47585 5.54293 6.49409 5.53877 6.51259 5.53877C6.54662 5.53877 6.58156 5.55279 6.60785 5.57906L7.48232 6.45353C7.51864 6.48991 7.52328 6.53122 7.52074 6.55949C7.51819 6.58778 7.50633 6.62761 7.46405 6.65694L6.77334 7.13621C6.6289 7.23644 6.54753 7.40511 6.55903 7.58055C6.56338 7.64681 6.67733 9.21586 7.73063 10.2692C8.78392 11.3225 10.353 11.4365 10.4192 11.4408C10.5945 11.4521 10.7634 11.3709 10.8636 11.2264L11.3429 10.5357C11.3722 10.4935 11.412 10.4816 11.4403 10.4791C11.4686 10.4765 11.5099 10.4812 11.5463 10.5175L12.4208 11.3919C12.4614 11.4325 12.4727 11.4936 12.4484 11.5405Z" fill="#E5E5E5"/>
<path d="M14.8335 3.16648C13.2752 1.60816 11.2035 0.75 8.99967 0.75C6.79589 0.75 4.72411 1.60816 3.16582 3.16644C1.8414 4.49086 1.00061 6.24369 0.798229 8.10207C0.606899 9.8589 0.98872 11.6471 1.87456 13.163L1.01482 16.3715C0.968482 16.5444 1.01792 16.7289 1.14454 16.8555C1.27109 16.982 1.45565 17.0315 1.62845 16.9852L4.837 16.1255C6.09718 16.8619 7.54574 17.25 9.00789 17.25C9.30447 17.25 9.60163 17.234 9.89789 17.2018C11.7563 16.9994 13.5091 16.1586 14.8335 14.8341C16.3918 13.2759 17.25 11.204 17.25 9.00032C17.25 6.79661 16.3918 4.72476 14.8335 3.16648ZM14.125 14.1256C11.7295 16.521 8.05025 16.9467 5.17766 15.1608C5.09748 15.111 5.00573 15.0853 4.91308 15.0853C4.86971 15.0853 4.82614 15.0909 4.78343 15.1024L2.20734 15.7927L2.89763 13.2166C2.93347 13.0828 2.91229 12.94 2.83917 12.8224C1.05327 9.94968 1.47898 6.27041 3.87435 3.87501C6.7005 1.04893 11.2988 1.04893 14.125 3.87501C16.951 6.70109 16.951 11.2995 14.125 14.1256Z" fill="#E5E5E5"/>
</svg>
