<svg width="18" height="18" viewBox="0 0 18 18" fill="none" xmlns="http://www.w3.org/2000/svg">
<path d="M16.5802 13.3435L13.3417 11.1836C12.9307 10.9117 12.3798 11.0012 12.076 11.3892L11.1327 12.6022C11.0114 12.762 10.7911 12.8084 10.6157 12.711L10.4362 12.612C9.8414 12.2878 9.10126 11.8841 7.61001 10.3922C6.11876 8.90033 5.71429 8.15957 5.39006 7.56578L5.29167 7.38632C5.1929 7.21096 5.23839 6.98963 5.39831 6.86742L6.61038 5.92431C6.9982 5.62043 7.08778 5.06966 6.81622 4.65853L4.65654 1.41984C4.37824 1.00119 3.81989 0.875511 3.38904 1.13452L2.03484 1.94805C1.60934 2.19822 1.29716 2.60338 1.16378 3.07862C0.676132 4.85555 1.04298 7.92225 5.56019 12.4403C9.15353 16.0336 11.8286 17 13.6673 17C14.0904 17.0018 14.5119 16.9467 14.9204 16.8362C15.3957 16.703 15.8009 16.3908 16.0509 15.9651L16.8652 14.6116C17.1246 14.1807 16.999 13.6219 16.5802 13.3435ZM16.4058 14.338L15.5934 15.6923C15.4139 15.9996 15.1224 16.2255 14.7801 16.3227C13.1398 16.7731 10.2741 16.4 5.93745 12.063C1.60074 7.72601 1.22777 4.86036 1.67811 3.21971C1.77547 2.87698 2.00162 2.58516 2.3092 2.40536L3.66341 1.59289C3.85035 1.4804 4.09269 1.53493 4.21345 1.7166L5.38662 3.47806L6.37129 4.95501C6.48921 5.13334 6.45046 5.37235 6.28224 5.50431L5.06989 6.44743C4.70094 6.72956 4.59558 7.24005 4.82274 7.64521L4.919 7.82013C5.25977 8.44515 5.68342 9.22268 7.23013 10.7692C8.77684 12.3158 9.55407 12.7395 10.1788 13.0803L10.3539 13.1768C10.759 13.4039 11.2695 13.2986 11.5516 12.9296L12.4947 11.7172C12.6266 11.549 12.8655 11.5103 13.0439 11.6281L16.2821 13.788C16.4639 13.9086 16.5184 14.1511 16.4058 14.338Z" fill="#E6E6E6" stroke="#E6E6E6" stroke-width="0.5"/>
</svg>
