<svg width="44" height="44" viewBox="0 0 44 44" fill="none" xmlns="http://www.w3.org/2000/svg">
<path d="M23.6512 22.0005L30.9916 14.6598C31.4477 14.2041 31.4477 13.4647 30.9916 13.009C30.5356 12.553 29.797 12.553 29.341 13.009L22.0005 20.3498L14.6597 13.009C14.2036 12.553 13.4651 12.553 13.009 13.009C12.553 13.4647 12.553 14.2041 13.009 14.6598L20.3499 22.0005L13.009 29.3413C12.553 29.7969 12.553 30.5363 13.009 30.992C13.2371 31.2196 13.5359 31.3337 13.8344 31.3337C14.1328 31.3337 14.4317 31.2196 14.6597 30.9916L22.0005 23.6509L29.341 30.9916C29.569 31.2196 29.8678 31.3337 30.1663 31.3337C30.4647 31.3337 30.7636 31.2196 30.9916 30.9916C31.4477 30.5359 31.4477 29.7966 30.9916 29.3409L23.6512 22.0005Z" fill="#1D1D1B"/>
</svg>
