<svg width="36" height="36" viewBox="0 0 36 36" fill="none" xmlns="http://www.w3.org/2000/svg">
<g clip-path="url(#clip0_12066_12418)">
<path d="M20.8132 22.1103C19.3422 23.2536 17.491 23.793 15.6365 23.6186C13.782 23.4442 12.0636 22.5691 10.8313 21.1717C9.59901 19.7742 8.9454 17.9593 9.00358 16.0966C9.06175 14.2338 9.82734 12.4633 11.1445 11.1455C12.4616 9.82776 14.2312 9.06178 16.093 9.00358C17.9547 8.94537 19.7687 9.59931 21.1655 10.8323C22.5622 12.0652 23.4368 13.7844 23.6111 15.6399C23.7854 17.4953 23.2464 19.3475 22.1037 20.8192L27 25.6997L25.7004 27L20.8224 22.1103H20.8132ZM16.3287 21.8173C17.0498 21.8173 17.7639 21.6752 18.4301 21.3991C19.0964 21.123 19.7017 20.7183 20.2116 20.2082C20.7215 19.698 21.126 19.0923 21.402 18.4258C21.6779 17.7592 21.8199 17.0448 21.8199 16.3233C21.8199 15.6018 21.6779 14.8874 21.402 14.2208C21.126 13.5543 20.7215 12.9486 20.2116 12.4384C19.7017 11.9283 19.0964 11.5236 18.4301 11.2475C17.7639 10.9714 17.0498 10.8293 16.3287 10.8293C14.8724 10.8293 13.4756 11.4081 12.4458 12.4384C11.416 13.4688 10.8375 14.8662 10.8375 16.3233C10.8375 17.7804 11.416 19.1778 12.4458 20.2082C13.4756 21.2385 14.8724 21.8173 16.3287 21.8173Z" fill="#333333"/>
</g>
<defs>
<clipPath id="clip0_12066_12418">
<rect width="24" height="24" fill="white" transform="translate(6 6)"/>
</clipPath>
</defs>
</svg>
