<svg width="17" height="17" viewBox="0 0 17 17" fill="none" xmlns="http://www.w3.org/2000/svg">
<g clip-path="url(#clip0_10496_13303)">
<path d="M0.293379 7.93065L4.45059 10.0025C4.61138 10.0819 4.80121 10.0762 4.95492 9.98623L8.65525 7.83502L6.4155 9.81977C6.30146 9.92107 6.23629 10.0656 6.23629 10.2179V15.0522C6.23629 15.5622 6.88725 15.7769 7.19254 15.3717L8.98959 12.9825L13.4337 15.5134C13.7453 15.6926 14.1448 15.5127 14.2171 15.1564L16.9888 1.34385C17.0717 0.928768 16.6587 0.590184 16.2748 0.744601L0.337295 6.96023C-0.0905381 7.1274 -0.118163 7.72594 0.293379 7.93065ZM15.7563 2.0876L13.3203 14.2263L9.10929 11.8279C8.87979 11.6969 8.58442 11.7549 8.4215 11.9703L7.29879 13.4627V10.4566L13.3558 5.09023C13.8353 4.66594 13.2842 3.91156 12.7367 4.23314L4.66875 8.92373L1.84109 7.51486L15.7563 2.0876Z" fill="#E5E5E5"/>
</g>
<defs>
<clipPath id="clip0_10496_13303">
<rect width="17" height="17" fill="white"/>
</clipPath>
</defs>
</svg>
