<svg width="44" height="44" viewBox="0 0 44 44" fill="none" xmlns="http://www.w3.org/2000/svg">
<rect width="44" height="44" rx="6" fill="#27AE60"/>
<path d="M31.442 25.9436C30.9311 25.6924 28.3856 24.4989 27.9121 24.3373C27.4386 24.1668 27.0917 24.0861 26.7495 24.5886C26.4026 25.0867 25.4182 26.1949 25.1088 26.5314C24.8088 26.8635 24.504 26.9038 23.9931 26.6571C20.9554 25.2033 18.963 24.0636 16.9613 20.7748C16.4316 19.8998 17.491 19.9626 18.4802 18.0737C18.6489 17.7416 18.5646 17.459 18.4333 17.2077C18.302 16.9564 17.2707 14.5246 16.8394 13.533C16.4222 12.5683 15.9909 12.7029 15.6769 12.6849C15.3768 12.667 15.0346 12.667 14.6877 12.667C14.3408 12.667 13.783 12.7926 13.3095 13.2817C12.836 13.7797 11.5 14.9777 11.5 17.4096C11.5 19.8415 13.3517 22.1971 13.6048 22.5291C13.8674 22.8612 17.2473 27.8506 22.4367 29.9998C25.7182 31.3548 27.0027 31.4715 28.6434 31.2382C29.6419 31.0946 31.6999 30.0446 32.1265 28.8825C32.553 27.7249 32.553 26.7333 32.4265 26.5269C32.2999 26.3071 31.953 26.1815 31.442 25.9436Z" fill="white"/>
</svg>
