<svg width="24" height="24" viewBox="0 0 24 24" fill="none" xmlns="http://www.w3.org/2000/svg">
<path d="M22.0947 18.3245L22.0951 18.3217C22.1409 18.0004 22.1216 17.6731 22.0383 17.3594C21.9551 17.0457 21.8097 16.7519 21.6107 16.4955L21.6034 16.4861L21.5948 16.478L21.5221 16.4098L21.5224 16.4094L21.5125 16.4016L18.7542 14.2204L18.7542 14.2203L18.7511 14.218C18.3067 13.8853 17.7616 13.7153 17.207 13.7364C16.6523 13.7576 16.1217 13.9686 15.704 14.3342L15.704 14.3341L15.6997 14.3382L14.568 15.4094C13.3779 15.1147 11.9278 14.2037 10.7415 13.0675C10.1372 12.4888 9.60643 11.8563 9.21673 11.2252C8.84125 10.6172 8.60173 10.0186 8.54656 9.47537L9.67698 8.28384L9.67712 8.28398L9.68208 8.27819C10.0417 7.85841 10.2469 7.32826 10.2637 6.77576C10.2804 6.22326 10.1077 5.68165 9.77412 5.24087L9.77414 5.24085L9.7722 5.23839L7.60111 2.49047C7.56962 2.44885 7.53158 2.41264 7.48848 2.38323C7.2336 2.18645 6.94203 2.04246 6.63082 1.95969C6.31797 1.87649 5.99162 1.85684 5.67106 1.90191L5.67105 1.90187L5.66766 1.90243C4.48376 2.09666 3.53663 2.5222 2.88374 3.1549C2.22812 3.79026 1.8793 4.62511 1.8793 5.61312C1.8793 9.99163 3.61865 14.1908 6.71473 17.2869C9.8108 20.383 14.01 22.1223 18.3885 22.1223C19.3765 22.1223 20.2114 21.7735 20.8463 21.1166C21.4785 20.4625 21.9028 19.5129 22.0947 18.3245ZM6.02239 3.10439L6.02236 3.10471L6.03219 3.10475C6.2744 3.10567 6.51062 3.17905 6.71055 3.31522L8.81771 5.97736C8.98115 6.19537 9.06645 6.46206 9.05986 6.73448C9.0533 7.00592 8.95587 7.26727 8.78324 7.47674L7.49613 8.83637L7.49556 8.83697C7.3912 8.94844 7.33289 9.09528 7.33236 9.24798V9.2485C7.33236 10.774 8.4247 12.5037 9.86059 13.9013C11.3 15.3024 13.126 16.4103 14.6556 16.6672L14.656 16.6672C14.7479 16.6824 14.8421 16.6762 14.9313 16.6489C15.0202 16.6217 15.1017 16.5743 15.1694 16.5104C15.1695 16.5103 15.1696 16.5102 15.1697 16.5101L16.5299 15.2361C16.738 15.0596 16.9996 14.9584 17.2724 14.9489C17.5455 14.9394 17.8139 15.0224 18.034 15.1844L20.719 17.2963C20.891 17.5432 20.962 17.847 20.9169 18.145C20.8072 18.7936 20.5979 19.4899 20.2044 20.021C19.8159 20.5454 19.2455 20.9135 18.3885 20.9135C14.3306 20.9135 10.4389 19.3015 7.56951 16.4321C4.70014 13.5627 3.08814 9.67103 3.08814 5.61312C3.08814 4.75604 3.45627 4.18585 3.98078 3.79979C4.51068 3.40976 5.20539 3.2049 5.85389 3.10398C5.91 3.10037 5.96629 3.1005 6.02239 3.10439Z" fill="#DCDCDC" stroke="#DCDCDC" stroke-width="0.3"/>
</svg>
