<svg width="44" height="44" viewBox="0 0 44 44" fill="none" xmlns="http://www.w3.org/2000/svg">
<path d="M22.3873 12.7214C22.1734 12.4939 21.8267 12.4939 21.6127 12.7214L9.56144 25.5383C9.45837 25.6476 9.40044 25.796 9.40039 25.9508L9.40039 30.8658C9.40039 31.4064 9.40039 31.4495 9.94722 31.4495C10.2327 31.4495 10.1018 31.5125 10.336 31.2783L21.9995 18.8726L33.663 31.2783C34.1437 31.759 33.9752 31.7418 34.4377 31.2793C34.6584 31.0586 34.5986 31.1466 34.5986 30.8658C34.5986 30.5851 34.5986 25.9508 34.5986 25.9508C34.5989 25.7962 34.5414 25.6478 34.4387 25.5383L22.3873 12.7214Z" fill="#2E2E2C"/>
</svg>
