<svg width="44" height="44" viewBox="0 0 44 44" fill="none" xmlns="http://www.w3.org/2000/svg">
<rect width="44" height="44" rx="6" fill="#25D366"/>
<path d="M28.1924 24.8672C27.873 24.7031 26.2822 23.9238 25.9863 23.8184C25.6904 23.707 25.4736 23.6543 25.2598 23.9824C25.043 24.3076 24.4277 25.0313 24.2344 25.251C24.0469 25.4678 23.8564 25.4941 23.5371 25.333C21.6387 24.3838 20.3936 23.6397 19.1426 21.4922C18.8115 20.9209 19.4736 20.9619 20.0918 19.7285C20.1973 19.5117 20.1445 19.3271 20.0625 19.1631C19.9805 18.999 19.3359 17.4111 19.0664 16.7637C18.8057 16.1338 18.5361 16.2217 18.3398 16.21C18.1523 16.1982 17.9385 16.1982 17.7217 16.1982C17.5049 16.1982 17.1563 16.2803 16.8604 16.5996C16.5645 16.9248 15.7295 17.707 15.7295 19.2949C15.7295 20.8828 16.8867 22.4209 17.0449 22.6377C17.209 22.8545 19.3213 26.1123 22.5645 27.5156C24.6152 28.4004 25.418 28.4766 26.4434 28.3242C27.0674 28.2305 28.3535 27.5449 28.6201 26.7861C28.8867 26.0303 28.8867 25.3828 28.8076 25.248C28.7285 25.1045 28.5117 25.0225 28.1924 24.8672Z" fill="white"/>
<path d="M34.3976 17.2061C33.7355 15.6328 32.7863 14.2207 31.5763 13.0078C30.3664 11.7979 28.9543 10.8457 27.3781 10.1865C25.7668 9.50977 24.0558 9.16699 22.2922 9.16699H22.2336C20.4582 9.17578 18.7384 9.52734 17.1213 10.2188C15.5597 10.8867 14.1593 11.8359 12.9611 13.0459C11.7629 14.2559 10.8224 15.6621 10.172 17.2295C9.49821 18.8525 9.15837 20.5781 9.16716 22.3535C9.17595 24.3867 9.66228 26.4053 10.5734 28.21V32.6631C10.5734 33.4072 11.1769 34.0107 11.9211 34.0107H16.3771C18.1818 34.9219 20.2004 35.4082 22.2336 35.417H22.2951C24.05 35.417 25.7521 35.0772 27.3547 34.4121C28.922 33.7588 30.3312 32.8213 31.5383 31.623C32.7482 30.4248 33.7004 29.0244 34.3654 27.4629C35.0568 25.8457 35.4084 24.126 35.4172 22.3506C35.426 20.5664 35.0802 18.835 34.3976 17.2061ZM29.9709 30.0381C27.9172 32.0713 25.1926 33.1904 22.2922 33.1904H22.2424C20.4758 33.1816 18.7209 32.7422 17.1711 31.916L16.925 31.7842H12.8V27.6592L12.6681 27.4131C11.842 25.8633 11.4025 24.1084 11.3937 22.3418C11.382 19.4209 12.4982 16.6787 14.5461 14.6133C16.591 12.5479 19.3244 11.4053 22.2453 11.3936H22.2951C23.7599 11.3936 25.1808 11.6777 26.5197 12.2402C27.8263 12.7881 28.9982 13.5762 30.006 14.584C31.0109 15.5889 31.8019 16.7637 32.3498 18.0703C32.9181 19.4238 33.2023 20.8594 33.1965 22.3418C33.1789 25.2598 32.0334 27.9932 29.9709 30.0381Z" fill="white"/>
</svg>
