<svg width="162" height="70" viewBox="0 0 162 70" fill="none" xmlns="http://www.w3.org/2000/svg">
<path d="M156.025 55.2329H157.217V63.7646H156.025V55.2329ZM159.044 62.6564C159.651 62.6564 160.095 62.5436 160.372 62.3103C160.652 62.0808 160.789 61.7542 160.789 61.3381V61.3187C160.789 61.0309 160.738 60.782 160.641 60.572C160.539 60.3659 160.383 60.2065 160.165 60.0937C159.947 59.9849 159.675 59.9265 159.336 59.9265H156.726V58.8455H159.336C159.776 58.8455 160.111 58.7405 160.337 58.5344C160.563 58.3244 160.676 58.0211 160.676 57.6128C160.676 57.185 160.551 56.8662 160.298 56.6562C160.049 56.4462 159.671 56.3412 159.168 56.3412H156.722V55.2329H159.386C159.939 55.2329 160.403 55.3263 160.773 55.5168C161.147 55.7034 161.424 55.9679 161.61 56.314C161.794 56.6601 161.887 57.0684 161.887 57.5467C161.887 57.8383 161.833 58.1144 161.716 58.3711C161.603 58.6277 161.427 58.8455 161.198 59.0283C160.964 59.211 160.676 59.3316 160.329 59.3938C160.676 59.4443 160.972 59.5688 161.221 59.7593C161.47 59.9537 161.665 60.1948 161.797 60.4826C161.934 60.7743 162 61.0853 162 61.4237V61.4431C162 61.902 161.899 62.3103 161.692 62.6641C161.49 63.018 161.198 63.2902 160.816 63.4808C160.438 63.6713 159.994 63.7685 159.488 63.7685H156.726V62.6564H159.044ZM139.49 63.8541C138.859 63.8541 138.317 63.7296 137.869 63.4808C137.421 63.2319 137.079 62.8702 136.845 62.3958C136.607 61.9214 136.49 61.3498 136.49 60.6809V55.2329H137.69V60.7198C137.69 61.342 137.85 61.8242 138.161 62.1625C138.473 62.5047 138.917 62.6719 139.49 62.6719C140.066 62.6719 140.51 62.5008 140.826 62.1625C141.141 61.8203 141.301 61.342 141.301 60.7198V55.2329H142.501V60.6809C142.501 61.3498 142.384 61.9214 142.146 62.3958C141.912 62.8702 141.57 63.2319 141.118 63.4808C140.666 63.7296 140.125 63.8541 139.49 63.8541ZM117.54 58.9933H122.285V60.1326H117.54V58.9933ZM116.792 55.2329H117.992V63.7646H116.792V55.2329ZM121.65 55.2329H122.849V63.7646H121.65V55.2329ZM94.9442 55.2329H100.974V56.3723H94.9442V55.2329ZM97.3593 55.9329H98.559V63.7685H97.3593V55.9329ZM81.8876 63.7646H80.6878V55.2329H81.8876V63.7646Z" fill="#B1B2B3"/>
<path d="M149.197 26.9818L157.462 39.48V26.8613C157.462 26.0408 157.641 25.4303 157.992 25.022C158.342 24.6137 158.818 24.4037 159.417 24.4037C160.029 24.4037 160.52 24.6059 160.874 25.0142C161.229 25.4225 161.408 26.0408 161.408 26.8613V43.5281C161.408 45.3907 160.637 46.3162 159.094 46.3162C158.709 46.3162 158.362 46.2618 158.05 46.149C157.743 46.0401 157.45 45.8613 157.186 45.6241C156.913 45.383 156.667 45.0991 156.434 44.7763C156.2 44.4536 155.97 44.123 155.737 43.7886L147.673 31.4499V43.8586C147.673 44.6674 147.487 45.2818 147.109 45.694C146.727 46.1101 146.244 46.3162 145.656 46.3162C145.048 46.3162 144.557 46.1101 144.191 45.6902C143.821 45.2702 143.638 44.6597 143.638 43.8586V27.5146C143.638 26.8185 143.716 26.2741 143.872 25.8814C144.055 25.4458 144.363 25.092 144.787 24.8159C145.212 24.5437 145.671 24.4076 146.162 24.4076C146.552 24.4076 146.883 24.4698 147.155 24.5942C147.432 24.7225 147.673 24.8898 147.884 25.1036C148.09 25.3175 148.305 25.5858 148.523 25.928C148.737 26.2625 148.963 26.6124 149.197 26.9818ZM135.54 35.3036C135.54 33.752 135.287 32.4065 134.788 31.2671C134.286 30.1317 133.569 29.2723 132.638 28.6851C131.707 28.1018 130.636 27.8101 129.428 27.8101C128.571 27.8101 127.777 27.9735 127.048 28.2923C126.316 28.619 125.689 29.0856 125.163 29.7039C124.637 30.3222 124.224 31.1116 123.917 32.0682C123.617 33.0326 123.461 34.1059 123.461 35.2997C123.461 36.509 123.613 37.594 123.917 38.5739C124.224 39.5461 124.653 40.3549 125.206 40.9966C125.759 41.6382 126.398 42.1165 127.115 42.4315C127.835 42.7542 128.622 42.9098 129.483 42.9098C130.585 42.9098 131.594 42.6337 132.517 42.0854C133.437 41.5371 134.169 40.6894 134.718 39.5383C135.267 38.3989 135.54 36.9796 135.54 35.3036ZM129.428 24.4037C131.633 24.4037 133.522 24.847 135.1 25.7414C136.677 26.628 137.873 27.8996 138.683 29.5406C139.494 31.1855 139.899 33.1143 139.899 35.3308C139.899 36.9679 139.677 38.4612 139.233 39.7989C138.789 41.1404 138.126 42.2993 137.234 43.2831C136.346 44.2669 135.256 45.0174 133.962 45.5385C132.665 46.0557 131.189 46.3201 129.518 46.3201C127.859 46.3201 126.367 46.0518 125.058 45.5152C123.741 44.9824 122.651 44.228 121.77 43.2559C120.89 42.2837 120.228 41.1132 119.776 39.7405C119.328 38.3717 119.102 36.894 119.102 35.3036C119.102 33.6742 119.336 32.1849 119.803 30.82C120.275 29.4628 120.949 28.3079 121.841 27.3513C122.725 26.3986 123.808 25.6675 125.085 25.1658C126.359 24.6564 127.808 24.4037 129.428 24.4037ZM114.292 28.0785H104.6V33.2892H113.524C114.183 33.2892 114.67 33.437 114.993 33.7287C115.32 34.0203 115.476 34.4092 115.476 34.8875C115.476 35.3658 115.316 35.7624 115.001 36.0619C114.681 36.3613 114.19 36.5168 113.52 36.5168H104.597V42.5598H114.619C115.297 42.5598 115.807 42.7192 116.146 43.0303C116.492 43.3414 116.664 43.7614 116.664 44.2786C116.664 44.7763 116.492 45.1885 116.146 45.4996C115.803 45.8107 115.297 45.9701 114.619 45.9701H102.929C101.995 45.9701 101.321 45.764 100.912 45.348C100.503 44.9319 100.292 44.263 100.292 43.3375V27.394C100.292 26.7758 100.386 26.2741 100.569 25.8853C100.752 25.4964 101.04 25.2086 101.43 25.0297C101.819 24.8509 102.318 24.7614 102.929 24.7614H114.288C114.973 24.7614 115.484 24.9131 115.815 25.2164C116.146 25.5236 116.313 25.9241 116.313 26.4102C116.313 26.9119 116.146 27.3202 115.815 27.6235C115.487 27.9229 114.977 28.0785 114.292 28.0785ZM80.5788 41.0121L91.4892 27.9851H82.1135C81.4552 27.9851 80.9605 27.8412 80.6294 27.5496C80.2944 27.2579 80.1308 26.8769 80.1308 26.4063C80.1308 25.9164 80.2944 25.5197 80.6294 25.2125C80.9605 24.9131 81.4552 24.7575 82.1135 24.7575H94.1964C95.7583 24.7575 96.5413 25.4886 96.5413 26.943C96.5413 27.639 96.4128 28.1912 96.1518 28.6073C95.8908 29.0234 95.3649 29.6922 94.5742 30.6216L84.3727 42.7348H95.6142C96.2764 42.7348 96.775 42.8748 97.1022 43.1509C97.4333 43.4231 97.5969 43.8081 97.5969 44.3019C97.5969 44.8113 97.4333 45.2157 97.1022 45.5152C96.775 45.8146 96.2764 45.9663 95.6142 45.9663H81.8214C80.8865 45.9663 80.1815 45.7524 79.7102 45.3363C79.2349 44.9163 78.9973 44.3602 78.9973 43.6525C78.9973 43.4114 79.0363 43.1898 79.1103 42.9875C79.1882 42.7853 79.2934 42.5909 79.4219 42.4159C79.5543 42.237 79.7335 42.0115 79.9672 41.7393C80.201 41.4593 80.4035 41.2143 80.5788 41.0121Z" fill="#006EA1"/>
<path fill-rule="evenodd" clip-rule="evenodd" d="M31.4292 20.0678C34.5376 23.171 34.5376 28.199 31.4292 31.2983C28.3209 34.4014 23.2844 34.4014 20.1799 31.2983C17.0715 28.1951 17.0715 23.1671 20.1799 20.0678C23.2883 16.9647 28.3248 16.9647 31.4292 20.0678Z" fill="#009EE3"/>
<path fill-rule="evenodd" clip-rule="evenodd" d="M49.8691 38.4728C52.9774 41.576 52.9774 46.604 49.8691 49.7033C46.7607 52.8064 41.7242 52.8064 38.6198 49.7033C35.5114 46.6001 35.5114 41.5721 38.6198 38.4728C41.7242 35.3736 46.7607 35.3736 49.8691 38.4728Z" fill="#009EE3"/>
<path fill-rule="evenodd" clip-rule="evenodd" d="M49.5808 20.1495C52.6892 23.2526 52.6892 28.2807 49.5808 31.3799C46.4725 34.4831 41.436 34.4831 38.3315 31.3799C35.2231 28.2768 35.2231 23.2487 38.3315 20.1495C41.436 17.0502 46.4725 17.0502 49.5808 20.1495Z" fill="#006EA1"/>
<path fill-rule="evenodd" clip-rule="evenodd" d="M31.1449 38.5545C34.2533 41.6576 34.2533 46.6857 31.1449 49.7849C28.0365 52.8842 23 52.8881 19.8956 49.7849C16.7872 46.6818 16.7872 41.6537 19.8956 38.5545C23 35.4552 28.0365 35.4552 31.1449 38.5545Z" fill="#006EA1"/>
<path fill-rule="evenodd" clip-rule="evenodd" d="M11.8052 20.1339C14.415 20.4567 16.1562 23.7037 15.7004 27.3824C15.2408 31.061 12.7557 33.7792 10.1459 33.4565C7.5361 33.1337 5.79495 29.8867 6.25069 26.208C6.71032 22.5293 9.19545 19.8073 11.8052 20.1339Z" fill="#009EE3"/>
<path fill-rule="evenodd" clip-rule="evenodd" d="M20.0747 58.2311C20.398 55.6257 23.6505 53.8874 27.3354 54.3424C31.0202 54.8013 33.743 57.2822 33.4197 59.8876C33.0964 62.493 29.8439 64.2313 26.159 63.7763C22.4742 63.3213 19.7514 60.8365 20.0747 58.2311Z" fill="#006EA1"/>
<path fill-rule="evenodd" clip-rule="evenodd" d="M9.7291 36.5713C12.3233 36.1319 14.9253 38.7411 15.5485 42.3965C16.1679 46.0518 14.5708 49.3688 11.9766 49.8082C9.38243 50.2477 6.78044 47.6384 6.15721 43.983C5.53788 40.3316 7.13491 37.0107 9.7291 36.5713Z" fill="#009EE3"/>
<path fill-rule="evenodd" clip-rule="evenodd" d="M36.6644 60.1832C36.2242 57.5933 38.8379 54.9957 42.4994 54.3735C46.1608 53.7552 49.4834 55.3496 49.9236 57.9394C50.3638 60.5293 47.7501 63.1269 44.0886 63.7491C40.431 64.3674 37.1045 62.773 36.6644 60.1832Z" fill="#006EA1"/>
<path fill-rule="evenodd" clip-rule="evenodd" d="M3.13843 24.7964C4.37321 25.0492 5.0276 27.1491 4.59913 29.4861C4.17066 31.8232 2.82682 33.5148 1.59204 33.262C0.357262 33.0093 -0.297131 30.9094 0.131341 28.5723C0.559812 26.2352 1.90365 24.5437 3.13843 24.7964Z" fill="#009EE3"/>
<path fill-rule="evenodd" clip-rule="evenodd" d="M24.7879 66.8444C25.0411 65.6117 27.1445 64.9585 29.4855 65.3862C31.8265 65.8139 33.5209 67.1555 33.2677 68.3882C33.0146 69.6209 30.9112 70.2742 28.5701 69.8465C26.2291 69.4187 24.5347 68.0771 24.7879 66.8444Z" fill="#009EE3"/>
<path fill-rule="evenodd" clip-rule="evenodd" d="M1.6193 36.8318C2.86187 36.6218 4.22908 38.3445 4.67703 40.6777C5.12498 43.0109 4.47838 45.0719 3.23581 45.2819C1.99324 45.4918 0.62603 43.7692 0.178083 41.436C-0.269864 39.1028 0.376738 37.0418 1.6193 36.8318Z" fill="#009EE3"/>
<path fill-rule="evenodd" clip-rule="evenodd" d="M36.7851 68.4193C36.5748 67.1789 38.3003 65.8139 40.6375 65.3668C42.9746 64.9196 45.039 65.5651 45.2494 66.8056C45.4597 68.046 43.7341 69.4109 41.397 69.8581C39.0599 70.3053 36.9955 69.6598 36.7851 68.4193Z" fill="#009EE3"/>
<path fill-rule="evenodd" clip-rule="evenodd" d="M9.1526 53.9886C10.1965 52.8842 12.7868 53.6852 14.9447 55.7734C17.1027 57.8655 18.0064 60.4515 16.9664 61.5559C15.9224 62.6602 13.3321 61.8592 11.1742 59.771C9.01627 57.6828 8.11258 55.0929 9.1526 53.9886Z" fill="#006EA1"/>
<path fill-rule="evenodd" clip-rule="evenodd" d="M53.2345 61.6764C52.1283 60.6343 52.9307 58.0483 55.0224 55.894C57.118 53.7397 59.7083 52.8375 60.8146 53.8758C61.9208 54.9179 61.1184 57.5039 59.0267 59.6582C56.9349 61.8125 54.3408 62.7147 53.2345 61.6764Z" fill="#006EA1"/>
<path fill-rule="evenodd" clip-rule="evenodd" d="M58.2944 49.7888C55.6846 49.4699 53.9357 46.2268 54.3875 42.5481C54.8393 38.8695 57.3206 36.1435 59.9304 36.4624C62.5401 36.7813 64.2891 40.0244 63.8372 43.7031C63.3854 47.3817 60.9041 50.1077 58.2944 49.7888Z" fill="#009EE3"/>
<path fill-rule="evenodd" clip-rule="evenodd" d="M49.8886 11.7655C49.5692 14.3709 46.3206 16.117 42.6357 15.6659C38.9508 15.2148 36.2203 12.7377 36.5397 10.1323C36.8591 7.52692 40.1077 5.78091 43.7926 6.232C47.4774 6.68308 50.208 9.16015 49.8886 11.7655Z" fill="#006EA1"/>
<path fill-rule="evenodd" clip-rule="evenodd" d="M60.2459 33.437C57.6556 33.8803 55.0458 31.2788 54.4187 27.6235C53.7915 23.9681 55.3847 20.6472 57.975 20.2039C60.5653 19.7606 63.1751 22.3621 63.8022 26.0175C64.4293 29.6689 62.8401 32.9937 60.2459 33.437Z" fill="#009EE3"/>
<path fill-rule="evenodd" clip-rule="evenodd" d="M33.4158 9.72401C33.8598 12.31 31.2539 14.9154 27.5924 15.5414C23.931 16.1675 20.6045 14.577 20.1604 11.9911C19.7164 9.40514 22.3222 6.79974 25.9837 6.17367C29.6452 5.54759 32.9717 7.13417 33.4158 9.72401Z" fill="#006EA1"/>
<path fill-rule="evenodd" clip-rule="evenodd" d="M66.7976 45.2624C65.5628 45.0135 64.9045 42.9137 65.3252 40.5766C65.7459 38.2395 67.0897 36.544 68.3245 36.7968C69.5593 37.0457 70.2176 39.1456 69.7969 41.4826C69.3762 43.8197 68.0324 45.5152 66.7976 45.2624Z" fill="#009EE3"/>
<path fill-rule="evenodd" clip-rule="evenodd" d="M45.2026 3.12107C44.9533 4.35377 42.8499 5.01096 40.5089 4.59098C38.1679 4.17101 36.4696 2.82942 36.7228 1.59672C36.9721 0.364012 39.0755 -0.293171 41.4165 0.126804C43.7575 0.546779 45.4519 1.88836 45.2026 3.12107Z" fill="#009EE3"/>
<path fill-rule="evenodd" clip-rule="evenodd" d="M68.379 33.1376C67.1365 33.3476 65.7653 31.6288 65.3135 29.2956C64.8617 26.9624 65.5044 24.9014 66.7469 24.6875C67.9895 24.4776 69.3606 26.1963 69.8125 28.5295C70.2604 30.8666 69.6216 32.9276 68.379 33.1376Z" fill="#009EE3"/>
<path fill-rule="evenodd" clip-rule="evenodd" d="M33.1392 1.62783C33.3495 2.86831 31.6279 4.23712 29.2908 4.6882C26.9536 5.13929 24.8892 4.49766 24.6749 3.25718C24.4646 2.0167 26.1863 0.647891 28.5234 0.196807C30.8644 -0.250389 32.9289 0.387351 33.1392 1.62783Z" fill="#009EE3"/>
<path fill-rule="evenodd" clip-rule="evenodd" d="M53.9512 9.26903C54.9951 8.16465 57.5855 8.96572 59.7434 11.0539C61.9013 13.146 62.805 15.732 61.765 16.8364C60.7211 17.9407 58.1308 17.1397 55.9728 15.0515C53.8149 12.9594 52.9073 10.3734 53.9512 9.26903Z" fill="#006EA1"/>
<path fill-rule="evenodd" clip-rule="evenodd" d="M8.43979 16.953C7.33356 15.9109 8.13597 13.3249 10.2277 11.1706C12.3233 9.01626 14.9136 8.1141 16.0198 9.15237C17.1261 10.1945 16.3237 12.7805 14.2319 14.9348C12.1363 17.0891 9.54213 17.9952 8.43979 16.953Z" fill="#006EA1"/>
</svg>
